<svg width="32" height="32" viewBox="0 0 32 32" fill="none" xmlns="http://www.w3.org/2000/svg">
<circle cx="16" cy="16" r="16" fill="white"/>
<g clip-path="url(#clip0_21543_116290)">
<path d="M22.1611 12.3337C22.0229 12.0944 21.8245 11.8954 21.5857 11.7565C21.3468 11.6176 21.0757 11.5437 20.7994 11.542H18.8757V9.95866C18.8757 9.7487 18.7922 9.54733 18.6438 9.39887C18.4953 9.2504 18.2939 9.16699 18.084 9.16699H10.1673C9.74739 9.16699 9.34466 9.33381 9.04773 9.63074C8.7508 9.92767 8.58398 10.3304 8.58398 10.7503V18.667C8.58427 18.9447 8.65756 19.2174 8.79652 19.4577C8.93547 19.6981 9.13519 19.8977 9.37565 20.0366C9.34731 20.7714 9.61205 21.4875 10.1116 22.0272C10.6112 22.5668 11.3047 22.8859 12.0396 22.9143C12.7745 22.9426 13.4905 22.6779 14.0302 22.1783C14.5699 21.6787 14.889 20.9852 14.9173 20.2503H17.3715C17.459 20.9127 17.7843 21.5207 18.2868 21.9611C18.7892 22.4015 19.4346 22.6444 20.1027 22.6444C20.7709 22.6444 21.4163 22.4015 21.9187 21.9611C22.4212 21.5207 22.7464 20.9127 22.834 20.2503C23.2539 20.2503 23.6566 20.0835 23.9536 19.7866C24.2505 19.4896 24.4173 19.0869 24.4173 18.667V16.292C24.4161 16.1476 24.3779 16.0059 24.3065 15.8803L22.1611 12.3337ZM18.8757 13.1253H20.7994L22.2244 15.5003H18.8757V13.1253ZM12.1465 21.042C11.9116 21.042 11.682 20.9723 11.4867 20.8419C11.2915 20.7114 11.1393 20.5259 11.0494 20.3089C10.9595 20.0919 10.936 19.8532 10.9818 19.6228C11.0276 19.3925 11.1407 19.1809 11.3068 19.0148C11.4729 18.8487 11.6845 18.7356 11.9148 18.6898C12.1452 18.644 12.3839 18.6675 12.6009 18.7574C12.8179 18.8473 13.0034 18.9995 13.1339 19.1948C13.2643 19.39 13.334 19.6196 13.334 19.8545C13.334 20.1694 13.2089 20.4715 12.9862 20.6942C12.7635 20.9169 12.4614 21.042 12.1465 21.042ZM20.0632 21.042C19.8283 21.042 19.5987 20.9723 19.4034 20.8419C19.2081 20.7114 19.0559 20.5259 18.966 20.3089C18.8762 20.0919 18.8526 19.8532 18.8985 19.6228C18.9443 19.3925 19.0574 19.1809 19.2235 19.0148C19.3895 18.8487 19.6011 18.7356 19.8315 18.6898C20.0618 18.644 20.3006 18.6675 20.5176 18.7574C20.7346 18.8473 20.92 18.9995 21.0505 19.1948C21.181 19.39 21.2507 19.6196 21.2507 19.8545C21.2507 20.1694 21.1255 20.4715 20.9028 20.6942C20.6801 20.9169 20.3781 21.042 20.0632 21.042Z" fill="#FC6330"/>
</g>
<defs>
<clipPath id="clip0_21543_116290">
<rect width="20" height="20" fill="white" transform="translate(6 6)"/>
</clipPath>
</defs>
</svg>
