<svg width="143" height="61" viewBox="0 0 143 61" fill="none" xmlns="http://www.w3.org/2000/svg">
<path d="M12.0242 40.38C10.8958 40.38 9.77823 40.2265 8.66872 39.9222C7.55921 39.6179 6.50356 39.1412 5.50446 38.4976C3.76479 37.3719 2.41291 35.915 1.44883 34.1269C0.482045 32.3387 0 30.3836 0 28.2589H8.16243C8.16243 29.2256 8.37249 29.9743 8.7899 30.5048C9.20732 31.0353 9.57895 31.3989 9.89941 31.5901C10.4784 31.9752 11.1059 32.1852 11.7818 32.2175C12.4577 32.2499 13.1175 32.1206 13.7612 31.8324C14.2109 31.6386 14.5744 31.3989 14.8491 31.108C15.1211 30.8172 15.3312 30.5371 15.4766 30.2624C15.622 29.9904 15.7109 29.7238 15.7432 29.4653C15.7755 29.2068 15.7917 28.9994 15.7917 28.8379C15.7917 28.6763 15.7755 28.4689 15.7432 28.2104C15.7109 27.9519 15.622 27.6799 15.4766 27.389C15.3312 27.0982 15.1211 26.8181 14.8491 26.5434C14.5744 26.2714 14.2136 26.021 13.7612 25.7948C13.4057 25.6332 13.0287 25.4905 12.6274 25.3612C12.2235 25.2319 11.798 25.0892 11.3482 24.9276C10.543 24.6691 9.70551 24.381 8.83568 24.0578C7.96585 23.7373 7.09601 23.3011 6.22887 22.7544C5.10051 22.0461 4.15259 21.1602 3.3797 20.0991C2.60681 19.0354 2.05206 17.8936 1.71274 16.6709C1.37343 15.4483 1.26032 14.1826 1.37342 12.8792C1.48653 11.5758 1.84739 10.329 2.46139 9.13598C3.04038 8.04262 3.76479 7.092 4.63462 6.2868C5.50446 5.4816 6.46855 4.84605 7.53228 4.38017C8.59601 3.91428 9.73783 3.63152 10.9604 3.53457C12.1831 3.43762 13.4245 3.55073 14.6795 3.87119C15.8994 4.16203 17.0062 4.61984 17.9972 5.24731C18.9882 5.87477 19.8446 6.6315 20.5663 7.51749C21.2853 8.40348 21.8374 9.3945 22.2225 10.4879C22.6076 11.5839 22.7988 12.7257 22.7988 13.916H14.6795C14.6795 13.1755 14.4452 12.6611 13.9793 12.3702C13.5134 12.0794 13.1014 11.8882 12.7486 11.7913C12.684 11.7913 12.5305 11.767 12.2908 11.7185C12.0484 11.6701 11.7764 11.6701 11.4694 11.7185C11.1624 11.767 10.85 11.8801 10.5269 12.0552C10.2037 12.2329 9.94788 12.513 9.75399 12.9008C9.49546 13.4151 9.44699 13.9564 9.60857 14.5192C9.77014 15.0821 10.0906 15.5264 10.5754 15.8469C11.0251 16.1054 11.526 16.337 12.0727 16.5471C12.6193 16.7571 13.1983 16.9564 13.8123 17.1503C14.359 17.3119 14.9137 17.4896 15.4766 17.6808C16.0394 17.8747 16.6076 18.1009 17.1839 18.3568C19.2952 19.3235 20.9514 20.74 22.1525 22.6063C23.3536 24.4725 23.9541 26.5515 23.9541 28.8352C23.9541 31.1188 23.3536 33.1493 22.1525 35.0156C20.9514 36.8818 19.2952 38.2983 17.1839 39.2651C16.3518 39.6502 15.5008 39.9329 14.631 40.1107C13.7612 40.2884 12.894 40.3773 12.0242 40.3773V40.38Z" fill="#355360"/>
<path d="M47.544 4.21094C49.9865 4.21094 52.2863 4.67682 54.4407 5.61129C56.5951 6.54576 58.4775 7.80877 60.0825 9.40301C61.6902 10.9973 62.9586 12.8716 63.8931 15.0287C64.8249 17.1857 65.2935 19.4882 65.2935 21.9335C65.2935 24.3787 64.8276 26.6839 63.8931 28.8383C62.9613 30.9954 61.6902 32.8697 60.0825 34.4639C58.4748 36.0582 56.5951 37.3212 54.4407 38.2556C52.2863 39.1901 49.9865 39.656 47.544 39.656C45.1015 39.656 42.8016 39.1901 40.6473 38.2556C38.4929 37.3212 36.6213 36.0582 35.0297 34.4639C33.4381 32.8697 32.1778 30.9954 31.2434 28.8383C30.3116 26.6812 29.8457 24.3787 29.8457 21.9335C29.8457 19.4882 30.3116 17.1857 31.2434 15.0287C32.1751 12.8716 33.4381 10.9973 35.0297 9.40301C36.6213 7.80877 38.4929 6.54576 40.6473 5.61129C42.8016 4.67682 45.1015 4.21094 47.544 4.21094ZM47.5682 31.4963C48.8878 31.4963 50.1266 31.2485 51.2872 30.7476C52.4452 30.2494 53.4605 29.5654 54.3303 28.6956C55.2001 27.8257 55.8842 26.8132 56.3824 25.6525C56.8806 24.4945 57.131 23.2557 57.131 21.9335C57.131 20.6112 56.8806 19.3751 56.3824 18.2145C55.8815 17.0565 55.2001 16.0412 54.3303 15.1714C53.4605 14.3015 52.4479 13.6175 51.2872 13.1193C50.1293 12.6211 48.8878 12.3707 47.5682 12.3707C46.2487 12.3707 45.0099 12.6211 43.8492 13.1193C42.6912 13.6202 41.676 14.3015 40.8062 15.1714C39.9363 16.0412 39.2523 17.0538 38.7541 18.2145C38.2532 19.3724 38.0054 20.6139 38.0054 21.9335C38.0054 23.253 38.2532 24.4945 38.7541 25.6525C39.2523 26.8105 39.9363 27.8257 40.8062 28.6956C41.676 29.5654 42.6885 30.2494 43.8492 30.7476C45.0072 31.2485 46.246 31.4963 47.5682 31.4963Z" fill="#355360"/>
<path d="M124.087 4.21094C126.53 4.21094 128.829 4.67682 130.984 5.61129C133.138 6.54576 135.02 7.80877 136.626 9.40301C138.233 10.9973 139.502 12.8716 140.436 15.0287C141.368 17.1857 141.834 19.4882 141.834 21.9335C141.834 24.3787 141.368 26.6839 140.436 28.8383C139.504 30.9954 138.233 32.8697 136.626 34.4639C135.018 36.0582 133.138 37.3212 130.984 38.2556C128.829 39.1901 126.532 39.656 124.087 39.656C121.642 39.656 119.345 39.1901 117.19 38.2556C115.036 37.3212 113.164 36.0582 111.573 34.4639C109.981 32.8697 108.721 30.9954 107.786 28.8383C106.855 26.6812 106.389 24.3787 106.389 21.9335C106.389 19.4882 106.855 17.1857 107.786 15.0287C108.718 12.8716 109.981 10.9973 111.573 9.40301C113.164 7.80877 115.036 6.54576 117.19 5.61129C119.345 4.67682 121.644 4.21094 124.087 4.21094ZM124.111 31.4963C125.431 31.4963 126.672 31.2485 127.83 30.7476C128.988 30.2494 130.003 29.5654 130.873 28.6956C131.743 27.8257 132.427 26.8132 132.925 25.6525C133.424 24.4945 133.674 23.2557 133.674 21.9335C133.674 20.6112 133.424 19.3751 132.925 18.2145C132.427 17.0565 131.743 16.0412 130.873 15.1714C130.003 14.3015 128.991 13.6175 127.83 13.1193C126.672 12.6211 125.431 12.3707 124.111 12.3707C122.792 12.3707 121.553 12.6211 120.392 13.1193C119.234 13.6202 118.219 14.3015 117.349 15.1714C116.479 16.0412 115.795 17.0538 115.297 18.2145C114.799 19.3724 114.548 20.6139 114.548 21.9335C114.548 23.253 114.796 24.4945 115.297 25.6525C115.795 26.8105 116.479 27.8257 117.349 28.6956C118.219 29.5654 119.232 30.2494 120.392 30.7476C121.55 31.2485 122.792 31.4963 124.111 31.4963Z" fill="#355360"/>
<path d="M80.406 4.25781H72.459V39.7056H80.406V4.25781Z" fill="#355360"/>
<path d="M99.0193 4.25781H91.0723V39.7056H99.0193V4.25781Z" fill="#355360"/>
<path d="M85.739 25.1422C87.7469 25.1422 89.3746 23.5145 89.3746 21.5066C89.3746 19.4988 87.7469 17.8711 85.739 17.8711C83.7312 17.8711 82.1035 19.4988 82.1035 21.5066C82.1035 23.5145 83.7312 25.1422 85.739 25.1422Z" fill="#EA5B27"/>
<path d="M58.6719 54.6709L60.0781 54.5342C60.1628 55.0062 60.3337 55.3529 60.5908 55.5742C60.8512 55.7956 61.2012 55.9062 61.6406 55.9062C62.1061 55.9062 62.4561 55.8086 62.6904 55.6133C62.9281 55.4147 63.0469 55.1836 63.0469 54.9199C63.0469 54.7507 62.9964 54.6074 62.8955 54.4902C62.7979 54.3698 62.6253 54.2656 62.3779 54.1777C62.2087 54.1191 61.8229 54.015 61.2207 53.8652C60.446 53.6732 59.9023 53.4372 59.5898 53.1572C59.1504 52.7633 58.9307 52.2832 58.9307 51.7168C58.9307 51.3522 59.0332 51.012 59.2383 50.6963C59.4466 50.3773 59.7445 50.1348 60.1318 49.9688C60.5225 49.8027 60.9928 49.7197 61.543 49.7197C62.4414 49.7197 63.1169 49.9167 63.5693 50.3105C64.0251 50.7044 64.2643 51.2301 64.2871 51.8877L62.8418 51.9512C62.7799 51.5833 62.6465 51.3197 62.4414 51.1602C62.2396 50.9974 61.9352 50.916 61.5283 50.916C61.1084 50.916 60.7796 51.0023 60.542 51.1748C60.389 51.2855 60.3125 51.4336 60.3125 51.6191C60.3125 51.7884 60.3841 51.9333 60.5273 52.0537C60.7096 52.2067 61.1523 52.3662 61.8555 52.5322C62.5586 52.6982 63.0778 52.8708 63.4131 53.0498C63.7516 53.2256 64.0153 53.4681 64.2041 53.7773C64.3962 54.0833 64.4922 54.4626 64.4922 54.915C64.4922 55.3252 64.3783 55.7093 64.1504 56.0674C63.9225 56.4255 63.6003 56.6924 63.1836 56.8682C62.7669 57.0407 62.2477 57.127 61.626 57.127C60.721 57.127 60.026 56.9186 59.541 56.502C59.056 56.082 58.7663 55.4717 58.6719 54.6709Z" fill="#EA5B27"/>
<path d="M65.708 57V49.8418H71.0156V51.0527H67.1533V52.6396H70.7471V53.8457H67.1533V55.7939H71.1523V57H65.708Z" fill="#EA5B27"/>
<path d="M72.417 57V49.9004H73.8623V55.7939H77.4561V57H72.417Z" fill="#EA5B27"/>
<path d="M78.5303 57V49.9004H79.9756V55.7939H83.5693V57H78.5303Z" fill="#EA5B27"/>
<path d="M84.6045 57V49.8418H89.9121V51.0527H86.0498V52.6396H89.6436V53.8457H86.0498V55.7939H90.0488V57H84.6045Z" fill="#EA5B27"/>
<path d="M91.2793 57V49.8418H94.3213C95.0863 49.8418 95.6413 49.9069 95.9863 50.0371C96.3346 50.1641 96.613 50.3919 96.8213 50.7207C97.0296 51.0495 97.1338 51.4255 97.1338 51.8486C97.1338 52.3857 96.9759 52.8301 96.6602 53.1816C96.3444 53.5299 95.8724 53.7497 95.2441 53.8408C95.5566 54.0231 95.8138 54.2233 96.0156 54.4414C96.2207 54.6595 96.4958 55.0469 96.8408 55.6035L97.7148 57H95.9863L94.9414 55.4424C94.5703 54.8857 94.3164 54.5358 94.1797 54.3926C94.043 54.2461 93.8981 54.1468 93.7451 54.0947C93.5921 54.0394 93.3496 54.0117 93.0176 54.0117H92.7246V57H91.2793ZM92.7246 52.8691H93.7939C94.4873 52.8691 94.9202 52.8398 95.0928 52.7812C95.2653 52.7227 95.4004 52.6217 95.498 52.4785C95.5957 52.3353 95.6445 52.1562 95.6445 51.9414C95.6445 51.7005 95.5794 51.5068 95.4492 51.3604C95.3223 51.2106 95.1416 51.1162 94.9072 51.0771C94.79 51.0609 94.4385 51.0527 93.8525 51.0527H92.7246V52.8691Z" fill="#EA5B27"/>
<path d="M105.864 54.3682L107.266 54.8125C107.051 55.5938 106.693 56.1748 106.191 56.5557C105.693 56.9333 105.06 57.1221 104.292 57.1221C103.341 57.1221 102.56 56.7982 101.948 56.1504C101.336 55.4993 101.03 54.6107 101.03 53.4844C101.03 52.293 101.338 51.3685 101.953 50.7109C102.568 50.0501 103.377 49.7197 104.38 49.7197C105.256 49.7197 105.967 49.9785 106.514 50.4961C106.839 50.8021 107.083 51.2415 107.246 51.8145L105.815 52.1562C105.731 51.7852 105.553 51.4922 105.283 51.2773C105.016 51.0625 104.691 50.9551 104.307 50.9551C103.776 50.9551 103.345 51.1455 103.013 51.5264C102.684 51.9072 102.52 52.5241 102.52 53.377C102.52 54.2819 102.682 54.9264 103.008 55.3105C103.333 55.6947 103.757 55.8867 104.277 55.8867C104.661 55.8867 104.992 55.7646 105.269 55.5205C105.545 55.2764 105.744 54.8923 105.864 54.3682Z" fill="#EA5B27"/>
<path d="M108.511 57V49.8418H113.818V51.0527H109.956V52.6396H113.55V53.8457H109.956V55.7939H113.955V57H108.511Z" fill="#EA5B27"/>
<path d="M115.195 57V49.8418H116.602L119.531 54.6221V49.8418H120.874V57H119.424L116.538 52.332V57H115.195Z" fill="#EA5B27"/>
<path d="M124.019 57V51.0527H121.895V49.8418H127.583V51.0527H125.464V57H124.019Z" fill="#EA5B27"/>
<path d="M128.521 57V49.8418H133.828V51.0527H129.966V52.6396H133.56V53.8457H129.966V55.7939H133.965V57H128.521Z" fill="#EA5B27"/>
<path d="M135.195 57V49.8418H138.237C139.002 49.8418 139.557 49.9069 139.902 50.0371C140.251 50.1641 140.529 50.3919 140.737 50.7207C140.946 51.0495 141.05 51.4255 141.05 51.8486C141.05 52.3857 140.892 52.8301 140.576 53.1816C140.26 53.5299 139.788 53.7497 139.16 53.8408C139.473 54.0231 139.73 54.2233 139.932 54.4414C140.137 54.6595 140.412 55.0469 140.757 55.6035L141.631 57H139.902L138.857 55.4424C138.486 54.8857 138.232 54.5358 138.096 54.3926C137.959 54.2461 137.814 54.1468 137.661 54.0947C137.508 54.0394 137.266 54.0117 136.934 54.0117H136.641V57H135.195ZM136.641 52.8691H137.71C138.403 52.8691 138.836 52.8398 139.009 52.7812C139.181 52.7227 139.316 52.6217 139.414 52.4785C139.512 52.3353 139.561 52.1562 139.561 51.9414C139.561 51.7005 139.495 51.5068 139.365 51.3604C139.238 51.2106 139.058 51.1162 138.823 51.0771C138.706 51.0609 138.354 51.0527 137.769 51.0527H136.641V52.8691Z" fill="#EA5B27"/>
</svg>
