<svg width="14" height="14" viewBox="0 0 14 14" fill="none" xmlns="http://www.w3.org/2000/svg">
<g clip-path="url(#clip0_21430_116253)">
<path d="M11.666 2.33203H2.33268C1.69102 2.33203 1.17185 2.85703 1.17185 3.4987L1.16602 10.4987C1.16602 11.1404 1.69102 11.6654 2.33268 11.6654H11.666C12.3077 11.6654 12.8327 11.1404 12.8327 10.4987V3.4987C12.8327 2.85703 12.3077 2.33203 11.666 2.33203ZM11.0827 10.4987H2.91602C2.59518 10.4987 2.33268 10.2362 2.33268 9.91537V4.66536L6.38102 7.19703C6.76018 7.4362 7.23852 7.4362 7.61768 7.19703L11.666 4.66536V9.91537C11.666 10.2362 11.4035 10.4987 11.0827 10.4987ZM6.99935 6.41536L2.33268 3.4987H11.666L6.99935 6.41536Z" fill="#146D81"/>
</g>
<defs>
<clipPath id="clip0_21430_116253">
<rect width="14" height="14" fill="white"/>
</clipPath>
</defs>
</svg>
