<svg width="14" height="14" viewBox="0 0 14 14" fill="none" xmlns="http://www.w3.org/2000/svg">
<g clip-path="url(#clip0_21430_116256)">
<path d="M11.2178 8.89974L9.7361 8.73057C9.38027 8.68974 9.03027 8.81224 8.77943 9.06307L7.7061 10.1364C6.05527 9.29641 4.70193 7.94891 3.86193 6.29224L4.9411 5.21307C5.19193 4.96224 5.31443 4.61224 5.2736 4.25641L5.10443 2.78641C5.03443 2.19724 4.5386 1.75391 3.9436 1.75391H2.93443C2.27527 1.75391 1.72693 2.30224 1.76777 2.96141C2.07693 7.94307 6.0611 11.9214 11.0369 12.2306C11.6961 12.2714 12.2444 11.7231 12.2444 11.0639V10.0547C12.2503 9.46557 11.8069 8.96974 11.2178 8.89974Z" fill="#146D81"/>
</g>
<defs>
<clipPath id="clip0_21430_116256">
<rect width="14" height="14" fill="white"/>
</clipPath>
</defs>
</svg>
